<?xml version="1.0" encoding="utf-8"?>
<!-- Generator: Adobe Illustrator 27.3.1, SVG Export Plug-In . SVG Version: 6.00 Build 0)  -->
<svg version="1.1" id="Warstwa_1" xmlns:serif="http://www.serif.com/"
	 xmlns="http://www.w3.org/2000/svg" xmlns:xlink="http://www.w3.org/1999/xlink" x="0px" y="0px" viewBox="0 0 1000 333"
	 style="enable-background:new 0 0 1000 333;" xml:space="preserve">
<style type="text/css">
	.st0{fill:#FFFFFF;}
	.st1{fill-rule:evenodd;clip-rule:evenodd;fill:#FFFFFF;}
	.st2{fill:#F23E17;}
	.st3{fill:url(#SVGID_1_);}
	.st4{fill:url(#SVGID_00000057849396298863162050000006362429801323865015_);}
	.st5{fill:url(#SVGID_00000183927541064854611290000006010293582355815589_);}
	.st6{fill:url(#SVGID_00000183250357277526791870000004358121398765189306_);}
	.st7{fill:url(#SVGID_00000036946106754330387320000006279408389370515872_);}
	.st8{fill:url(#SVGID_00000056419210271990079540000012876098349428277149_);}
</style>
<g transform="matrix(1,0,0,1,0,13.8231)">
	<path class="st0" d="M435.8,129.7h30.3v75.1h6.3v-75.1h30.3v-6.3h-67v6.3H435.8z"/>
</g>
<g transform="matrix(1,0,0,1,0,13.7675)">
	<path class="st0" d="M316.9,172.4H284v-39.8l13-1.2v0.1l1.5-0.1c0.9-0.1,2.1-0.2,3.5-0.4h0.2c4.8-0.5,11.9-1.3,14.8-1.3
		c11.3,0,20.5,8.5,20.5,18.9C337.5,162.8,329.8,171.8,316.9,172.4 M316.9,123.4c-3.2,0-10.2,0.7-15.4,1.3l0,0l-23.9,2.2V205h6.3
		v-26.1H317c8.9-0.5,16.1-4,20.8-10.3c3.8-5.2,5.9-12.2,5.9-19.8C343.8,134.7,331.7,123.4,316.9,123.4"/>
</g>
<g transform="matrix(1,0,0,1,0,11.4365)">
	<path class="st0" d="M378.7,169.8c0,0,15.1-35.1,15.3-35.3c0.3-0.7,0.3-1.3,0.3-1.3s0,0.6,0.3,1.3c0.1,0.2,26.9,59.1,27.3,60
		c0.4,0.9,0.9,1.6,1.3,2.2c0,0-1.4-1.3-2-1.6C419.8,194.1,378.7,169.8,378.7,169.8 M392.4,122l-36.7,85.3h6.9l13.6-31.6l53.3,31.6
		h5.2l-38.8-85.2L392.4,122L392.4,122z"/>
</g>
<g transform="matrix(1,0,0,1,0,13.8627)">
	<path class="st0" d="M530.8,156.2v-23.6l13-1.2v0.1l1.5-0.1c0.9-0.1,2.1-0.2,3.5-0.4h0.2c4.8-0.5,11.9-1.3,14.8-1.3
		c11.3,0,20.5,8.5,20.5,18.9c0,14.3-7.7,23.2-20.5,23.9H552L530.8,156.2z M559.6,178.3c1,0.3,1.4,0.4,2,0.5c1,0,2.3,0,2.3,0
		c8.9-0.5,16.1-4,20.8-10.3c3.8-5.2,5.9-12.2,5.9-19.8c0-13.9-12.1-25.2-26.9-25.2c-3.2,0-10.2,0.7-15.4,1.3l0,0l-23.9,2.2v78.1h6.3
		v-40.7l10.8,8.2l8.3,6.3l34.3,26.1h9.8c0,0-32.5-24.9-33.2-25.6C560.1,178.6,559.6,178.3,559.6,178.3"/>
</g>
<g transform="matrix(1,0,0,1,0,13.8632)">
	<path class="st0" d="M772.8,194.2l-56.3-70.8h-6v81.5h6.3V134l56.3,70.9h6v-81.4h-6.3V194.2z"/>
</g>
<g transform="matrix(1,0,0,1,0,13.7728)">
	<rect x="811.7" y="123.5" class="st1" width="6.3" height="81.4"/>
</g>
<g transform="matrix(1,0,0,1,0,13.7723)">
	<path class="st0" d="M839,129.8h29.6v75h6.3v-75H906v-6.3h-67L839,129.8L839,129.8z"/>
</g>
<g transform="matrix(1,0,0,1,0,13.8117)">
	<path class="st0" d="M930.7,198.4v-28.8h45.8v-5.3c0,0-38.4-32.9-39.1-33.4c-1.4-1.2-1.9-1.3-1.9-1.3s1.3,0.1,2.7,0.1h48.3v-6.3
		h-62.2v4.5c0,0,39.5,33.9,40.1,34.5s1.8,1.2,1.8,1.2s-0.9-0.3-2.1-0.3h-39.8v41.6h68.3v-6.5L930.7,198.4L930.7,198.4z"/>
</g>
<g transform="matrix(1,0,0,1,0,13.4059)">
	<path class="st0" d="M679,169.9c0,11.5-5.8,18.6-7.9,20.9l-1.3,1.4c-5.6,5.5-13,8.5-20.7,8.6h-0.5h-0.5c-7.8-0.1-15.1-3.1-20.7-8.6
		l-1.3-1.4c-2.1-2.3-7.9-9.4-7.9-20.9v-10.8c0-17.2,13.5-31.3,30.2-31.6h0.2h0.2c16.7,0.3,30.2,14.4,30.2,31.6V169.9z M651.2,121.4
		L651.2,121.4l-1-0.1h-1.3h-0.2h-0.2h-1.3l-1,0.1l0,0c-19.2,1.5-34.1,17.9-34.1,37.8V170c0,8.6,2.9,17,8.3,23.6l1.3,1.4
		c7,7.6,16.7,12.2,26.9,12.2c0.1,0,0.2,0,0.3,0s0.2,0,0.3,0c10.2,0,19.9-4.6,26.9-12.2l1.3-1.4c5.3-6.6,8.3-14.9,8.3-23.6v-10.8
		C685.3,139.3,670.4,122.8,651.2,121.4"/>
</g>
<g>
	<path class="st2" d="M173.8,122.6L104,42.2l-68.7,82.3L7.4,194.3L37,263l69.6,27.8l68.9-29.6l27.8-69.6L173.8,122.6z M137,225.2
		l-31.7,13.6l-31.9-12.7l-13.5-31.4l12.9-32.1l31.4-13.5l31.7,12.7l13.6,31.8L137,225.2z"/>
	<g>
		
			<linearGradient id="SVGID_1_" gradientUnits="userSpaceOnUse" x1="97.0451" y1="1652.2047" x2="173.9823" y2="1785.4639" gradientTransform="matrix(1 0 0 1 0 -1606)">
			<stop  offset="0" style="stop-color:#F15A29"/>
			<stop  offset="0.2278" style="stop-color:#F15428"/>
			<stop  offset="0.5464" style="stop-color:#EF4127"/>
			<stop  offset="0.9172" style="stop-color:#ED2425"/>
			<stop  offset="1" style="stop-color:#ED1C24"/>
		</linearGradient>
		<polygon class="st3" points="104,42.2 173.8,122.6 175.8,127.4 149.5,193.6 91.1,57.5 		"/>
		
			<linearGradient id="SVGID_00000089561733148510769970000005498315523398284168_" gradientUnits="userSpaceOnUse" x1="170.1631" y1="1733.4326" x2="170.1631" y2="1831.1578" gradientTransform="matrix(1 0 0 1 0 -1606)">
			<stop  offset="0" style="stop-color:#F15A29"/>
			<stop  offset="1" style="stop-color:#ED1C24"/>
		</linearGradient>
		<polygon style="fill:url(#SVGID_00000089561733148510769970000005498315523398284168_);" points="175.8,127.4 203.4,191.6 
			201,197.6 137,225.2 		"/>
		
			<linearGradient id="SVGID_00000121990021406933963820000016916473104903597724_" gradientUnits="userSpaceOnUse" x1="200.9684" y1="1848.7607" x2="59.8604" y2="1848.7607" gradientTransform="matrix(1 0 0 1 0 -1606)">
			<stop  offset="0" style="stop-color:#F15A29"/>
			<stop  offset="0.2594" style="stop-color:#F04F28"/>
			<stop  offset="0.714" style="stop-color:#EE3226"/>
			<stop  offset="1" style="stop-color:#ED1C24"/>
		</linearGradient>
		<polygon style="fill:url(#SVGID_00000121990021406933963820000016916473104903597724_);" points="201,197.6 137,225.2 
			105.2,238.8 73.4,226.1 59.9,194.7 59.9,272.1 106.7,290.8 175.6,261.2 		"/>
		
			<linearGradient id="SVGID_00000109738915160756333250000013206856249387805847_" gradientUnits="userSpaceOnUse" x1="22.9612" y1="1844.6023" x2="93.2208" y2="1804.038" gradientTransform="matrix(1 0 0 1 0 -1606)">
			<stop  offset="0" style="stop-color:#F15A29"/>
			<stop  offset="7.694709e-02" style="stop-color:#F15328"/>
			<stop  offset="0.4514" style="stop-color:#EF3526"/>
			<stop  offset="0.7722" style="stop-color:#ED2325"/>
			<stop  offset="1" style="stop-color:#ED1C24"/>
		</linearGradient>
		<polygon style="fill:url(#SVGID_00000109738915160756333250000013206856249387805847_);" points="72.8,162.6 8.2,192.3 7.4,194.3 
			37,263 59.9,272.1 59.9,194.7 		"/>
		
			<linearGradient id="SVGID_00000048465581138611671590000008509307418132565896_" gradientUnits="userSpaceOnUse" x1="56.1978" y1="1798.2799" x2="56.1978" y2="1730.4799" gradientTransform="matrix(1 0 0 1 0 -1606)">
			<stop  offset="0" style="stop-color:#F15A29"/>
			<stop  offset="1" style="stop-color:#ED1C24"/>
		</linearGradient>
		<polygon style="fill:url(#SVGID_00000048465581138611671590000008509307418132565896_);" points="35.3,124.5 104.2,149.1 
			72.8,162.6 8.2,192.3 		"/>
		
			<linearGradient id="SVGID_00000023262199060511872170000006627375438928855708_" gradientUnits="userSpaceOnUse" x1="48.4174" y1="1753.2468" x2="119.3134" y2="1712.3152" gradientTransform="matrix(1 0 0 1 0 -1606)">
			<stop  offset="0" style="stop-color:#F15A29"/>
			<stop  offset="1" style="stop-color:#ED1C24"/>
		</linearGradient>
		<polygon style="fill:url(#SVGID_00000023262199060511872170000006627375438928855708_);" points="35.3,124.5 104.2,149.1 
			135.9,161.8 91.1,57.5 		"/>
	</g>
</g>
</svg>
